<?xml version="1.0" encoding="UTF-8"?>
<svg width="24.3mm" height="23.625mm" version="1.1" viewBox="0 0 24.3 23.625" xmlns="http://www.w3.org/2000/svg"><g transform="translate(-1.481 -1.3473)"><g transform="matrix(.35278 0 0 -.35278 -133.15 220.53)"><g transform="translate(401.74 574.21)"><path d="m0 0c-0.988 0.554-2.723 3.221-2.747 5.889-0.028 3.094 2.718 4.735 3.714 5.283 0 0 4.974 2.329 6.264 0.808 1.29-1.52 0.061-11.376-7.231-11.98" fill="#fff" fill-rule="evenodd" stroke="#100000" stroke-linecap="round" stroke-linejoin="round" stroke-width="1.141"/></g><g transform="translate(407.45 561.58)"><path d="m0 0c0.082 1.187 0.111 4.47 0.754 4.52l11.808 0.635c0.482-0.557-0.938-2.446 0.543-3.412 2.557-1.667 1.759-3.985 1.502-4.489-0.609-1.191-5.119-2.096-9.338-1.997-6.467 0.151-8.915 1.311-8.936 2.09-0.023 0.858 2.14 2.169 3.667 2.653" fill="#43a254" fill-rule="evenodd"/></g><g transform="translate(407.45 561.58)"><path d="m0 0c0.082 1.187 0.111 4.47 0.754 4.52l11.808 0.635c0.482-0.557-0.938-2.446 0.543-3.412 2.557-1.667 1.759-3.985 1.502-4.489-0.609-1.191-5.119-2.096-9.338-1.997-6.467 0.151-8.915 1.311-8.936 2.09-0.023 0.858 2.14 2.169 3.667 2.653z" fill="none" stroke="#100000" stroke-linecap="round" stroke-linejoin="round" stroke-width="1.141"/></g><g transform="translate(408 559.36)"><path d="m0 0c0.061-1.377-0.801-2.028-0.801-2.028-2.402 0.446-3.404 1.097-3.417 1.594-0.02 0.749 1.624 1.843 3.058 2.431 0 0 1.092-0.43 1.16-1.997" fill="#fff"/></g><g transform="translate(408 559.36)"><path d="m0 0c0.061-1.377-0.801-2.028-0.801-2.028-2.402 0.446-3.404 1.097-3.417 1.594-0.02 0.749 1.624 1.843 3.058 2.431 0 0 1.092-0.43 1.16-1.997z" fill="none" stroke="#100000" stroke-linecap="round" stroke-linejoin="round" stroke-width="1.141"/></g><g transform="translate(416.07 559.51)"><path d="m0 0c0.05 1.188-0.011 4.471 0.63 4.538l11.786 0.958c0.497-0.544-0.87-2.471 0.637-3.395 2.601-1.597 1.867-3.937 1.624-4.447-0.576-1.208-5.06-2.235-9.281-2.252-6.468-0.025-8.948 1.068-8.99 1.845-0.046 0.857 2.081 2.228 3.594 2.753" fill="#43a254" fill-rule="evenodd"/></g><g transform="translate(416.07 559.51)"><path d="m0 0c0.05 1.188-0.011 4.471 0.63 4.538l11.786 0.958c0.497-0.544-0.87-2.471 0.637-3.395 2.601-1.597 1.867-3.937 1.624-4.447-0.576-1.208-5.06-2.235-9.281-2.252-6.468-0.025-8.948 1.068-8.99 1.845-0.046 0.857 2.081 2.228 3.594 2.753z" fill="none" stroke="#100000" stroke-linecap="round" stroke-linejoin="round" stroke-width="1.141"/></g><g transform="translate(416.68 557.31)"><path d="m0 0c0.099-1.375-0.745-2.05-0.745-2.05-2.414 0.381-3.433 1.005-3.46 1.501-0.04 0.748 1.573 1.887 2.991 2.514 0 0 1.103-0.401 1.214-1.965" fill="#fff"/></g><g transform="translate(416.68 557.31)"><path d="m0 0c0.099-1.375-0.745-2.05-0.745-2.05-2.414 0.381-3.433 1.005-3.46 1.501-0.04 0.748 1.573 1.887 2.991 2.514 0 0 1.103-0.401 1.214-1.965z" fill="none" stroke="#100000" stroke-linecap="round" stroke-linejoin="round" stroke-width="1.141"/></g><g transform="translate(402.04 571.77)"><path d="m 0,0 c -0.898,0.69 -2.229,3.581 -1.868,6.225 0.42,3.066 3.373,4.293 4.437,4.691 0,0 5.26,1.586 6.317,-0.104 C 9.942,9.12 7.303,-0.455 0,0" fill="#fff" fill-rule="evenodd" stroke="#100000" stroke-linecap="round" stroke-linejoin="round" stroke-width="1.141"/></g><g transform="translate(440.56 574.58)"><path d="m0 0 1.714 3.227 2.372-2.779z" fill="#fff" fill-rule="evenodd"/></g><g transform="translate(440.56 574.58)"><path d="m0 0 1.714 3.227 2.372-2.779z" fill="none" stroke="#100000" stroke-linecap="round" stroke-linejoin="round" stroke-width="1.141"/></g><g transform="translate(444.93 575.07)"><path d="m0 0 1.428 3.363 2.603-2.562z" fill="#fff" fill-rule="evenodd"/></g><g transform="translate(444.93 575.07)"><path d="m0 0 1.428 3.363 2.603-2.562z" fill="none" stroke="#100000" stroke-linecap="round" stroke-linejoin="round" stroke-width="1.141"/></g><g transform="translate(408.82 586.13)"><path d="m0 0c-2.145-1.186-5.463-6.159-5.62-11.77-0.179-6.402 5.353-13.629 16.018-11.673 1.245-0.415 5.681-1.637 12.19-0.739 12.119 1.674 17.392 10.815 18.518 14.37-2.528-0.685-10.827-2.621-16.032-1.019-3.532 1.087-4.866 5.644-4.49 8.829 0.375 3.185-18.35 3.236-20.584 2.002" fill="#43a254" fill-rule="evenodd"/></g><g transform="translate(408.82 586.13)"><path d="m0 0c-2.145-1.186-5.463-6.159-5.62-11.77-0.179-6.402 5.353-13.629 16.018-11.673 1.245-0.415 5.681-1.637 12.19-0.739 12.119 1.674 17.392 10.815 18.518 14.37-2.528-0.685-10.827-2.621-16.032-1.019-3.532 1.087-4.866 5.644-4.49 8.829 0.375 3.185-18.35 3.236-20.584 2.002z" fill="none" stroke="#100000" stroke-linecap="round" stroke-linejoin="round" stroke-width="1.141"/></g><g transform="translate(418.8 571.88)"><path d="m0 0c-0.315 5.236 2.389 8.455 2.466 9.791 0.135 2.328-10.521 4.656-11.368 4.771-0.473-0.092-0.828-0.197-1.039-0.313-2.144-1.186-5.498-6.022-5.656-11.633-0.178-6.402 5.389-13.766 16.054-11.81 1.244-0.415 5.681-1.637 12.189-0.739 0.655 0.091 1.289 0.204 1.903 0.336-8.951 0-14.223 4.188-14.549 9.597" fill="#fff"/></g><g transform="translate(418.8 571.88)"><path d="m0 0c-0.315 5.236 2.389 8.455 2.466 9.791 0.135 2.328-10.521 4.656-11.368 4.771-0.473-0.092-0.828-0.197-1.039-0.313-2.144-1.186-5.498-6.022-5.656-11.633-0.178-6.402 5.389-13.766 16.054-11.81 1.244-0.415 5.681-1.637 12.189-0.739 0.655 0.091 1.289 0.204 1.903 0.336-8.951 0-14.223 4.188-14.549 9.597z" fill="none" stroke="#100000" stroke-linecap="round" stroke-linejoin="round" stroke-width="1.141"/></g><g transform="translate(433.35 562.28)"><path d="m0 0c-2e-3 0-3e-3 -1e-3 -5e-3 -1e-3h6e-3z" fill="#fff"/></g><g transform="translate(433.35 562.28)"><path d="m0 0c-2e-3 0-3e-3 -1e-3 -5e-3 -1e-3h6e-3z" fill="none" stroke="#100000" stroke-linecap="round" stroke-linejoin="round" stroke-width="1.141"/></g><g transform="translate(411.07 584.38)"><path d="m0 0 3.409-0.969-2.111-3.072-1.866 0.611z" fill="#223591" fill-rule="evenodd"/></g><g transform="translate(411.07 584.38)"><path d="m0 0 3.409-0.969-2.111-3.072-1.866 0.611z" fill="none" stroke="#100000" stroke-linecap="round" stroke-linejoin="round" stroke-width="1.141"/></g><g transform="translate(412.81 584.33)"><path d="m0 0 0.845-3.557 9.074 2.396s-7.504 0.638-9.919 1.161" fill="#fff" fill-rule="evenodd"/></g><g transform="translate(412.81 584.33)"><path d="m0 0 0.845-3.557 9.074 2.396s-7.504 0.638-9.919 1.161z" fill="none" stroke="#100000" stroke-linecap="round" stroke-linejoin="round" stroke-width="1.141"/></g><g transform="translate(412.4 584.42)"><path d="m0 0-2.504-2.723-1.707 4.037s3.352-1.115 4.211-1.314" fill="#fff"/></g><g transform="translate(412.4 584.42)"><path d="m0 0-2.504-2.723-1.707 4.037s3.352-1.115 4.211-1.314z" fill="none" stroke="#100000" stroke-linecap="round" stroke-linejoin="round" stroke-width="1.141"/></g><g transform="translate(410.5 580.95)"><path d="m0 0-3.067-7.713 0.975-1.689 2.208 0.668 1.75 8.123z" fill="#223591" fill-rule="evenodd"/></g><g transform="translate(410.5 580.95)"><path d="m0 0-3.067-7.713 0.975-1.689 2.208 0.668 1.75 8.123z" fill="none" stroke="#100000" stroke-linecap="round" stroke-linejoin="round" stroke-width="1.141"/></g><g transform="translate(409.81 576.63)"><path d="m0 0 11.385 2.16-2.066 1.377 5.278 1.777-2.352 2.123" fill="none" stroke="#100000" stroke-linecap="round" stroke-linejoin="round" stroke-width="1.141"/></g><g transform="translate(409.57 576.75)"><path d="m0 0-3.51 3.755 1.091 1.663-1.21 2.211 2.224 1.578z" fill="#fff" fill-rule="evenodd"/></g><g transform="translate(409.57 576.75)"><path d="m0 0-3.51 3.755 1.091 1.663-1.21 2.211 2.224 1.578z" fill="none" stroke="#100000" stroke-linecap="round" stroke-linejoin="round" stroke-width="1.141"/></g><g transform="translate(432.01 584.86)"><path d="m0 0c-3.232-0.885-10.208-0.419-10.178-0.163 0 0-7.19-6.065-12.264-7.942-1.229 3.306-1.28 9.101-1.486 8.918-2.251-1.997-5.957-6.009-5.874-12.706 0.03-2.366 2.007-7.18 4.345-8.662l1.749 3.5 2.204-5.521c18.868-5.095 28.082 4.38 30.482 13.066-0.424-0.146-3.151 0.087-3.151 0.087-5.601 0.535-6.806 2.999-6.806 2.999-0.345 1.63-0.765 3.746 0.979 6.424" fill="#fff"/></g><g transform="translate(432.01 584.86)"><path d="m0 0c-3.232-0.885-10.208-0.419-10.178-0.163 0 0-7.19-6.065-12.264-7.942-1.229 3.306-1.28 9.101-1.486 8.918-2.251-1.997-5.957-6.009-5.874-12.706 0.03-2.366 2.007-7.18 4.345-8.662l1.749 3.5 2.204-5.521c18.868-5.095 28.082 4.38 30.482 13.066-0.424-0.146-3.151 0.087-3.151 0.087-5.601 0.535-6.806 2.999-6.806 2.999-0.345 1.63-0.765 3.746 0.979 6.424z" fill="none" stroke="#100000" stroke-linecap="round" stroke-linejoin="round" stroke-miterlimit="10" stroke-width="1.141"/></g><g transform="translate(409.39 570.82)"><path d="m0 0c0-0.461-0.373-0.834-0.834-0.834s-0.834 0.373-0.834 0.834 0.373 0.834 0.834 0.834 0.834-0.373 0.834-0.834" fill="#fff" fill-rule="evenodd"/></g><g transform="translate(409.39 570.82)"><path d="m0 0c0-0.461-0.373-0.834-0.834-0.834s-0.834 0.373-0.834 0.834 0.373 0.834 0.834 0.834 0.834-0.373 0.834-0.834z" fill="none" stroke="#100000" stroke-linecap="round" stroke-linejoin="round" stroke-width=".571"/></g><g transform="translate(409.99 574.25)"><path d="m0 0c0-0.461-0.374-0.834-0.834-0.834-0.461 0-0.834 0.373-0.834 0.834 0 0.46 0.373 0.834 0.834 0.834 0.46 0 0.834-0.374 0.834-0.834" fill="#fff" fill-rule="evenodd"/></g><g transform="translate(409.99 574.25)"><path d="m0 0c0-0.461-0.374-0.834-0.834-0.834-0.461 0-0.834 0.373-0.834 0.834 0 0.46 0.373 0.834 0.834 0.834 0.46 0 0.834-0.374 0.834-0.834z" fill="none" stroke="#100000" stroke-linecap="round" stroke-linejoin="round" stroke-width=".571"/></g><g transform="translate(414.98 569.59)"><path d="m0 0s6.526-3.303 6.559-3.315c0 0-2.807-4.53-6.061-2.169-2.024 1.468-0.498 5.484-0.498 5.484" fill="#fff" fill-rule="evenodd"/></g><g transform="translate(414.98 569.59)"><path d="m0 0s6.526-3.303 6.559-3.315c0 0-2.807-4.53-6.061-2.169-2.024 1.468-0.498 5.484-0.498 5.484z" fill="none" stroke="#100000" stroke-linecap="round" stroke-linejoin="round" stroke-width="1.141"/></g><g transform="translate(390.9 573.8)"><path d="m0 0 15.455-2.406c1.231-0.191 3.323-0.306 4.65-0.256l7.041 0.224c0.592 0.052 0.81 0.076 0.873 0.145 0.066 0.074 0.43 1.431-0.204 1.529l-17.527 2.658c-1.23 0.191-3.129-0.306-4.457-0.356l-7.531 0.39c-0.349-0.034-0.231-1.335-0.394-1.379-0.321-0.087 1.278-0.423 2.094-0.549" fill="#ccc" fill-rule="evenodd"/></g><g transform="translate(390.9 573.8)"><path d="m0 0 15.455-2.406c1.231-0.191 3.323-0.306 4.65-0.256l7.041 0.224c0.592 0.052 0.81 0.076 0.873 0.145 0.066 0.074 0.43 1.431-0.204 1.529l-17.527 2.658c-1.23 0.191-3.129-0.306-4.457-0.356l-7.531 0.39c-0.349-0.034-0.231-1.335-0.394-1.379-0.321-0.087 1.278-0.423 2.094-0.549z" fill="none" stroke="#100000" stroke-linecap="round" stroke-linejoin="round" stroke-miterlimit="10" stroke-width="1.255"/></g><g transform="translate(389.64 575.5)"><path d="m0 0 16.94-2.634c1.231-0.191 3.324-0.306 4.651-0.257l7.041 0.225c1.222 0.106 1.407 0.247 0.177 0.437l-16.942 2.635c-1.229 0.191-3.322 0.306-4.649 0.256l-7.041-0.225c-1.038-0.1-1.407-0.247-0.177-0.437" fill="#ccc" fill-rule="evenodd"/></g><g transform="translate(389.64 575.5)"><path d="m0 0 16.94-2.634c1.231-0.191 3.324-0.306 4.651-0.257l7.041 0.225c1.222 0.106 1.407 0.247 0.177 0.437l-16.942 2.635c-1.229 0.191-3.322 0.306-4.649 0.256l-7.041-0.225c-1.038-0.1-1.407-0.247-0.177-0.437z" fill="none" stroke="#100000" stroke-linecap="round" stroke-linejoin="round" stroke-miterlimit="10" stroke-width="1.255"/></g><g transform="translate(389.47 575.58)"><path d="m0 0 19.276-2.962c1.233-0.189 2.085 0.619 1.895 1.798l-4.612 9.6c-0.536 1.412-1.356 2.297-2.588 2.487l-19.276 2.963c-1.233 0.189-2.086-0.619-1.895-1.798l4.612-9.601c0.516-1.255 1.356-2.297 2.588-2.487" fill="#ccc" fill-rule="evenodd"/></g><g transform="translate(389.47 575.58)"><path d="m0 0 19.276-2.962c1.233-0.189 2.085 0.619 1.895 1.798l-4.612 9.6c-0.536 1.412-1.356 2.297-2.588 2.487l-19.276 2.963c-1.233 0.189-2.086-0.619-1.895-1.798l4.612-9.601c0.516-1.255 1.356-2.297 2.588-2.487z" fill="none" stroke="#100000" stroke-linecap="round" stroke-linejoin="round" stroke-miterlimit="10" stroke-width="1.255"/></g><g transform="translate(409.45 572.49)"><path d="m0 0-0.14-1.123" fill="#ccc" fill-rule="evenodd" stroke="#100000" stroke-linecap="round" stroke-linejoin="round" stroke-miterlimit="10" stroke-width="1.255"/></g><g transform="translate(388.9 575.65)"><path d="m0 0-0.172-1.118" fill="#ccc" fill-rule="evenodd" stroke="#100000" stroke-linecap="round" stroke-linejoin="round" stroke-miterlimit="10" stroke-width=".924"/></g><g transform="translate(392.36 582.02)"><path d="m0 0c-0.249 1.392 0.366 2.396 1.516 2.572l1.148-1.066c-1.11 0.17-1.786-0.53-1.669-1.619 0.954-0.255 1.914-0.898 2.669-1.736 0.304 0.675 0.954 1.071 1.841 1.042-0.552 1.156-1.731 2.142-2.841 2.313l0.592 0.799c1.37-0.563 2.672-1.863 3.268-3.308 0.065-0.154 0.121-0.311 0.167-0.469 0.064-0.21 0.107-0.413 0.133-0.608-0.21 0.086-0.423 0.147-0.633 0.18-0.132 0.02-0.259 0.028-0.379 0.024-0.729-0.022-1.205-0.477-1.289-1.176-0.015-0.128-0.017-0.264-5e-3 -0.409 0.014-0.176 0.048-0.361 0.107-0.556 0.052-0.173 0.119-0.345 0.199-0.513l0.013-0.025-0.766 0.118-2e-3 0.023c-0.017 0.158-0.05 0.325-0.102 0.498-0.059 0.195-0.137 0.387-0.231 0.575-0.077 0.154-0.165 0.305-0.261 0.451-0.53 0.793-1.334 1.444-2.148 1.703-0.134 0.043-0.267 0.076-0.4 0.096-0.211 0.032-0.406 0.033-0.582 6e-3 -0.092 0.206-0.172 0.415-0.235 0.625-0.047 0.157-0.083 0.311-0.11 0.46" fill="#223591"/></g><g transform="translate(415.78 572.28)"><path d="m0 0c0.308-0.979 0.222-1.675 0.222-1.675s-3.517-0.246-3.759 0.541c-0.262 0.847 2.753 2.632 2.753 2.632s0.476-0.519 0.784-1.498" fill="#fff" fill-rule="evenodd"/></g><g transform="translate(415.78 572.28)"><path d="m0 0c0.308-0.979 0.222-1.675 0.222-1.675s-3.517-0.246-3.759 0.541c-0.262 0.847 2.753 2.632 2.753 2.632s0.476-0.519 0.784-1.498z" fill="none" stroke="#231916" stroke-linecap="round" stroke-linejoin="round" stroke-width="1.141"/></g><g transform="translate(415.7 575.59)"><path d="m0 0c0.242-0.771 0.175-1.318 0.175-1.318s-2.768-0.194-2.959 0.425c-0.206 0.667 2.167 2.073 2.167 2.073s0.375-0.409 0.617-1.18" fill="#fff" fill-rule="evenodd"/></g><g transform="translate(415.7 575.59)"><path d="m0 0c0.242-0.771 0.175-1.318 0.175-1.318s-2.768-0.194-2.959 0.425c-0.206 0.667 2.167 2.073 2.167 2.073s0.375-0.409 0.617-1.18z" fill="none" stroke="#231916" stroke-linecap="round" stroke-linejoin="round" stroke-width="1.141"/></g><g transform="translate(428.11 573.36)"><path d="m0 0c-3.624-3.283-7.186-3.987-9.414-3.901-1.181 0.045-2.096 0.627-2.096 0.627-0.87 0.275-1.94 0.699-2.262 1.725-0.342 1.087 0.392 2.1 0.967 2.836 0 0-0.953 0.075-0.952 1.257 2e-3 1.678 8.051 4.982 13.082 2.605" fill="#43a254" fill-rule="evenodd" stroke="#231916" stroke-linecap="round" stroke-linejoin="round" stroke-width="1.141"/></g><g transform="translate(430.87 585.26)"><path d="m0 0c1.938-0.584 5.933-5.019 4.554-9.44-1.09-3.495-6.213-6.54-12.428-7.101-1.818 0.228-5.25 10.309-5.25 10.309 0.576 0.576 7.293 1.862 10.365 0.54" fill="#fff" stroke="#100000" stroke-linecap="round" stroke-linejoin="round" stroke-miterlimit="10" stroke-width="1.141"/></g><g transform="translate(397.18 595.55)"><path d="m0 0c4.585-7.523 11.734-11.895 23.957-12.311 9.377-0.32 14.838 2.242 17.349 7.242 0.734 1.462 1.764 5.817 1.291 6.844 2.154 2.189 3.537 4.809 4.016 8.075 0.782 5.321-3.661 8.788-7.909 8.397-4.287-0.394-6.995-2.983-7.459-3.522-0.152 0.288-2.378 1.214-2.737 1.138 0.015 0.326 0.131 1.587-0.404 3.357-0.968 3.213-2.79 5.342-5.981 5.857-2.978 0.482-7.057-0.409-9.315-5.786-1.186-2.821-2.391-5.781-6.046-5.781-7.898 0-13.041 2.51-16.796 0.518-3.416-1.811-5.004-10.479 10.034-14.028" fill="#43a254" fill-rule="evenodd"/></g><g transform="translate(397.18 595.55)"><path d="m0 0c4.585-7.523 11.734-11.895 23.957-12.311 9.377-0.32 14.838 2.242 17.349 7.242 0.734 1.462 1.764 5.817 1.291 6.844 2.154 2.189 3.537 4.809 4.016 8.075 0.782 5.321-3.661 8.788-7.909 8.397-4.287-0.394-6.995-2.983-7.459-3.522-0.152 0.288-2.378 1.214-2.737 1.138 0.015 0.326 0.131 1.587-0.404 3.357-0.968 3.213-2.79 5.342-5.981 5.857-2.978 0.482-7.057-0.409-9.315-5.786-1.186-2.821-2.391-5.781-6.046-5.781-7.898 0-13.041 2.51-16.796 0.518-3.416-1.811-5.004-10.479 10.034-14.028z" fill="none" stroke="#231916" stroke-linecap="round" stroke-linejoin="round" stroke-width="1.141"/></g><g transform="translate(429.21 594.61)"><path d="m0 0c-0.273-1.048-4.394-9.087-15.339-7.813-5.779 0.672-11.277 4.764-13.049 7.813l-0.168 0.082c7.219-1.573 17.777-2.611 28.331 0.858z" fill="#f19ca6" fill-rule="evenodd"/></g><g transform="translate(432.49 592.81)"><path d="m0 0c-1.351-0.033-4.432 1.67-3.643 5.481" fill="none" stroke="#231916" stroke-linecap="round" stroke-linejoin="round" stroke-width="1.141"/></g><g transform="translate(394.86 605.9)"><path d="m0 0c-0.197 0.563-0.294 1.22-0.255 1.915 0.109 1.992 1.281 3.547 2.618 3.474 1.336-0.074 2.33-1.748 2.22-3.741-0.055-0.99-0.371-1.872-0.84-2.5" fill="#43a254" fill-rule="evenodd" stroke="#231916" stroke-linecap="round" stroke-linejoin="round" stroke-width="1.141"/></g><g transform="translate(397.95 607.21)"><path d="m0 0c-0.042-0.758-0.507-1.348-1.038-1.318-0.531 0.029-0.928 0.667-0.886 1.424 0.041 0.758 0.506 1.349 1.037 1.32 0.532-0.03 0.928-0.667 0.887-1.426" fill="#231916" fill-rule="evenodd"/></g><g transform="translate(403.56 600.92)"><path d="m0 0c0.314 0.507 0.766 0.994 1.331 1.4 1.62 1.164 3.566 1.228 4.348 0.142 0.781-1.087 0.1-2.912-1.52-4.076-0.805-0.579-1.69-0.886-2.473-0.914" fill="#43a254" fill-rule="evenodd" stroke="#231916" stroke-linecap="round" stroke-linejoin="round" stroke-width="1.141"/></g><g transform="translate(406.52 599.34)"><path d="m0 0c-0.616-0.442-1.368-0.451-1.679-0.02-0.31 0.432-0.062 1.142 0.554 1.584 0.616 0.444 1.367 0.453 1.678 0.021 0.311-0.433 0.063-1.142-0.553-1.585" fill="#231916" fill-rule="evenodd"/></g><g transform="translate(404.4 609.07)"><path d="m0 0c0.875-0.113 3.838-1.02 4.279-5.819" fill="none" stroke="#231916" stroke-linecap="round" stroke-linejoin="round" stroke-width="1.141"/></g><g transform="translate(438.77 603.12)"><path d="m0 0c-1.486-2.532-3.945-3.85-5.491-2.942s-1.595 3.696-0.108 6.229c1.487 2.532 3.946 3.851 5.492 2.942 1.546-0.907 1.594-3.696 0.107-6.229" fill="#f0eb39" fill-rule="evenodd"/></g><g transform="translate(438.77 603.12)"><path d="m0 0c-1.486-2.532-3.945-3.85-5.491-2.942s-1.595 3.696-0.108 6.229c1.487 2.532 3.946 3.851 5.492 2.942 1.546-0.907 1.594-3.696 0.107-6.229z" fill="none" stroke="#231916" stroke-linecap="round" stroke-linejoin="round" stroke-width="1.141"/></g><g transform="translate(438.12 602.34)"><path d="m0 0c-0.831-1.416-2.261-2.121-3.191-1.574-0.932 0.547-1.013 2.137-0.182 3.554 0.832 1.416 2.261 2.122 3.192 1.575 0.932-0.547 1.012-2.138 0.181-3.555" fill="#231916" fill-rule="evenodd"/></g><g transform="translate(419.98 612.14)"><path d="m0 0c-1.232-2.392-3.415-3.722-4.875-2.969-1.461 0.752-1.646 3.301-0.413 5.694 1.232 2.391 3.415 3.72 4.876 2.968 1.46-0.753 1.644-3.301 0.412-5.693" fill="#f0eb39" fill-rule="evenodd"/></g><g transform="translate(419.98 612.14)"><path d="m0 0c-1.232-2.392-3.415-3.722-4.875-2.969-1.461 0.752-1.646 3.301-0.413 5.694 1.232 2.391 3.415 3.72 4.876 2.968 1.46-0.753 1.644-3.301 0.412-5.693z" fill="none" stroke="#231916" stroke-linecap="round" stroke-linejoin="round" stroke-width="1.141"/></g><g transform="translate(419.42 611.39)"><path d="m0 0c-0.689-1.338-1.961-2.055-2.841-1.602-0.879 0.454-1.033 1.905-0.345 3.243 0.69 1.338 1.961 2.054 2.841 1.601s1.034-1.905 0.345-3.242" fill="#231916" fill-rule="evenodd"/></g><g transform="translate(419.85 587.12)"><path d="m0 0c0.478 0.137 1.876 0.55 1.876 0.55l-2.504 2.704-1.219-3.591s1.353 0.196 1.847 0.337" fill="#fff" fill-rule="evenodd"/></g><g transform="translate(419.85 587.12)"><path d="m0 0c0.478 0.137 1.876 0.55 1.876 0.55l-2.504 2.704-1.219-3.591s1.353 0.196 1.847 0.337z" fill="none" stroke="#231916" stroke-linecap="round" stroke-linejoin="round" stroke-width="1.141"/></g><g transform="translate(424.72 589.24)"><path d="m0 0c0.322 0.233 1.858 1.546 1.858 1.546l-3.668 1.912-0.27-4.622s1.745 0.922 2.08 1.164" fill="#fff" fill-rule="evenodd"/></g><g transform="translate(424.72 589.24)"><path d="m0 0c0.322 0.233 1.858 1.546 1.858 1.546l-3.668 1.912-0.27-4.622s1.745 0.922 2.08 1.164z" fill="none" stroke="#231916" stroke-linecap="round" stroke-linejoin="round" stroke-width="1.141"/></g><g transform="translate(406.42 609.59)"><path d="m0 0c0.875-0.114 4.449-0.213 4.831-5.254" fill="none" stroke="#231916" stroke-linecap="round" stroke-linejoin="round" stroke-width="1.141"/></g><g transform="translate(397.18 595.55)"><path d="m0 0c7.14-1.549 19.4-4.08 31.811 0" fill="none" stroke="#231916" stroke-linecap="round" stroke-linejoin="round" stroke-width="1.141"/></g><g transform="translate(429.21 594.61)"><path d="m0 0c-0.273-1.048-4.394-9.087-15.339-7.813-5.779 0.672-11.277 4.764-13.049 7.813" fill="none" stroke="#231916" stroke-linecap="round" stroke-linejoin="round" stroke-width="1.141"/></g></g></g></svg>
