<?xml version="1.0" encoding="UTF-8" standalone="no"?>
<!DOCTYPE svg PUBLIC "-//W3C//DTD SVG 1.1//EN"
 "http://www.w3.org/Graphics/SVG/1.1/DTD/svg11.dtd">
<!-- Generated by graphviz version 2.38.0 (20140413.2041)
 -->
<!-- Title: %3 Pages: 1 -->
<svg width="1001pt" height="1199pt"
 viewBox="0.00 0.00 1000.66 1199.00" xmlns="http://www.w3.org/2000/svg" xmlns:xlink="http://www.w3.org/1999/xlink">
<g id="graph0" class="graph" transform="scale(0.691066 0.691066) rotate(0) translate(4 1731)">
<title>%3</title>
<polygon fill="white" stroke="none" points="-4,4 -4,-1731 1444,-1731 1444,4 -4,4"/>
<!-- 2053976615952 -->
<g id="node1" class="node"><title>2053976615952</title>
<polygon fill="#caff70" stroke="black" points="1356,-21 1255,-21 1255,-0 1356,-0 1356,-21"/>
<text text-anchor="middle" x="1305.5" y="-7.4" font-family="Times New Roman,serif" font-size="12.00">AddmmBackward</text>
</g>
<!-- 2053976616000 -->
<g id="node2" class="node"><title>2053976616000</title>
<polygon fill="lightblue" stroke="black" points="1242.5,-92 1188.5,-92 1188.5,-57 1242.5,-57 1242.5,-92"/>
<text text-anchor="middle" x="1215.5" y="-64.4" font-family="Times New Roman,serif" font-size="12.00"> (1)</text>
</g>
<!-- 2053976616000&#45;&gt;2053976615952 -->
<g id="edge1" class="edge"><title>2053976616000&#45;&gt;2053976615952</title>
<path fill="none" stroke="black" d="M1239.62,-56.8851C1253.16,-47.5591 1269.93,-36.0012 1283.17,-26.8831"/>
<polygon fill="black" stroke="black" points="1285.43,-29.5731 1291.68,-21.0178 1281.46,-23.8086 1285.43,-29.5731"/>
</g>
<!-- 2053976616048 -->
<g id="node3" class="node"><title>2053976616048</title>
<polygon fill="lightgrey" stroke="black" points="1350.5,-85 1260.5,-85 1260.5,-64 1350.5,-64 1350.5,-85"/>
<text text-anchor="middle" x="1305.5" y="-71.4" font-family="Times New Roman,serif" font-size="12.00">ReluBackward1</text>
</g>
<!-- 2053976616048&#45;&gt;2053976615952 -->
<g id="edge2" class="edge"><title>2053976616048&#45;&gt;2053976615952</title>
<path fill="none" stroke="black" d="M1305.5,-63.8125C1305.5,-55.2183 1305.5,-42.3883 1305.5,-31.5855"/>
<polygon fill="black" stroke="black" points="1309,-31.3241 1305.5,-21.3241 1302,-31.3241 1309,-31.3241"/>
</g>
<!-- 2053976616720 -->
<g id="node4" class="node"><title>2053976616720</title>
<polygon fill="lightgrey" stroke="black" points="1356,-156 1255,-156 1255,-135 1356,-135 1356,-156"/>
<text text-anchor="middle" x="1305.5" y="-142.4" font-family="Times New Roman,serif" font-size="12.00">AddmmBackward</text>
</g>
<!-- 2053976616720&#45;&gt;2053976616048 -->
<g id="edge3" class="edge"><title>2053976616720&#45;&gt;2053976616048</title>
<path fill="none" stroke="black" d="M1305.5,-134.906C1305.5,-124.71 1305.5,-108.3 1305.5,-95.3077"/>
<polygon fill="black" stroke="black" points="1309,-95.0126 1305.5,-85.0127 1302,-95.0127 1309,-95.0126"/>
</g>
<!-- 2053976616912 -->
<g id="node5" class="node"><title>2053976616912</title>
<polygon fill="lightblue" stroke="black" points="1243.5,-234 1189.5,-234 1189.5,-199 1243.5,-199 1243.5,-234"/>
<text text-anchor="middle" x="1216.5" y="-206.4" font-family="Times New Roman,serif" font-size="12.00"> (32)</text>
</g>
<!-- 2053976616912&#45;&gt;2053976616720 -->
<g id="edge4" class="edge"><title>2053976616912&#45;&gt;2053976616720</title>
<path fill="none" stroke="black" d="M1238.04,-198.797C1252.36,-187.699 1271.04,-173.218 1285.11,-162.309"/>
<polygon fill="black" stroke="black" points="1287.44,-164.933 1293.2,-156.04 1283.15,-159.401 1287.44,-164.933"/>
</g>
<!-- 2053976616096 -->
<g id="node6" class="node"><title>2053976616096</title>
<polygon fill="lightgrey" stroke="black" points="1349.5,-227 1261.5,-227 1261.5,-206 1349.5,-206 1349.5,-227"/>
<text text-anchor="middle" x="1305.5" y="-213.4" font-family="Times New Roman,serif" font-size="12.00">ViewBackward</text>
</g>
<!-- 2053976616096&#45;&gt;2053976616720 -->
<g id="edge5" class="edge"><title>2053976616096&#45;&gt;2053976616720</title>
<path fill="none" stroke="black" d="M1305.5,-205.906C1305.5,-195.71 1305.5,-179.3 1305.5,-166.308"/>
<polygon fill="black" stroke="black" points="1309,-166.013 1305.5,-156.013 1302,-166.013 1309,-166.013"/>
</g>
<!-- 2053976616624 -->
<g id="node7" class="node"><title>2053976616624</title>
<polygon fill="lightgrey" stroke="black" points="1349.5,-298 1261.5,-298 1261.5,-277 1349.5,-277 1349.5,-298"/>
<text text-anchor="middle" x="1305.5" y="-284.4" font-family="Times New Roman,serif" font-size="12.00">MulBackward0</text>
</g>
<!-- 2053976616624&#45;&gt;2053976616096 -->
<g id="edge6" class="edge"><title>2053976616624&#45;&gt;2053976616096</title>
<path fill="none" stroke="black" d="M1305.5,-276.906C1305.5,-266.71 1305.5,-250.3 1305.5,-237.308"/>
<polygon fill="black" stroke="black" points="1309,-237.013 1305.5,-227.013 1302,-237.013 1309,-237.013"/>
</g>
<!-- 2053976616144 -->
<g id="node8" class="node"><title>2053976616144</title>
<polygon fill="lightgrey" stroke="black" points="1392.5,-362 1218.5,-362 1218.5,-341 1392.5,-341 1392.5,-362"/>
<text text-anchor="middle" x="1305.5" y="-348.4" font-family="Times New Roman,serif" font-size="12.00">MaxPool2DWithIndicesBackward</text>
</g>
<!-- 2053976616144&#45;&gt;2053976616624 -->
<g id="edge7" class="edge"><title>2053976616144&#45;&gt;2053976616624</title>
<path fill="none" stroke="black" d="M1305.5,-340.813C1305.5,-332.218 1305.5,-319.388 1305.5,-308.585"/>
<polygon fill="black" stroke="black" points="1309,-308.324 1305.5,-298.324 1302,-308.324 1309,-308.324"/>
</g>
<!-- 2053976616336 -->
<g id="node9" class="node"><title>2053976616336</title>
<polygon fill="lightgrey" stroke="black" points="1350.5,-419 1260.5,-419 1260.5,-398 1350.5,-398 1350.5,-419"/>
<text text-anchor="middle" x="1305.5" y="-405.4" font-family="Times New Roman,serif" font-size="12.00">ReluBackward1</text>
</g>
<!-- 2053976616336&#45;&gt;2053976616144 -->
<g id="edge8" class="edge"><title>2053976616336&#45;&gt;2053976616144</title>
<path fill="none" stroke="black" d="M1305.5,-397.92C1305.5,-390.908 1305.5,-381.144 1305.5,-372.465"/>
<polygon fill="black" stroke="black" points="1309,-372.341 1305.5,-362.341 1302,-372.341 1309,-372.341"/>
</g>
<!-- 2053976615760 -->
<g id="node10" class="node"><title>2053976615760</title>
<polygon fill="lightgrey" stroke="black" points="1379,-476 1232,-476 1232,-455 1379,-455 1379,-476"/>
<text text-anchor="middle" x="1305.5" y="-462.4" font-family="Times New Roman,serif" font-size="12.00">NativeBatchNormBackward</text>
</g>
<!-- 2053976615760&#45;&gt;2053976616336 -->
<g id="edge9" class="edge"><title>2053976615760&#45;&gt;2053976616336</title>
<path fill="none" stroke="black" d="M1305.5,-454.92C1305.5,-447.908 1305.5,-438.144 1305.5,-429.465"/>
<polygon fill="black" stroke="black" points="1309,-429.341 1305.5,-419.341 1302,-429.341 1309,-429.341"/>
</g>
<!-- 2053976705536 -->
<g id="node11" class="node"><title>2053976705536</title>
<polygon fill="lightgrey" stroke="black" points="1260,-540 1135,-540 1135,-519 1260,-519 1260,-540"/>
<text text-anchor="middle" x="1197.5" y="-526.4" font-family="Times New Roman,serif" font-size="12.00">ThnnConv2DBackward</text>
</g>
<!-- 2053976705536&#45;&gt;2053976615760 -->
<g id="edge10" class="edge"><title>2053976705536&#45;&gt;2053976615760</title>
<path fill="none" stroke="black" d="M1214.38,-518.813C1231.97,-508.712 1259.76,-492.76 1280.02,-481.125"/>
<polygon fill="black" stroke="black" points="1281.81,-484.134 1288.74,-476.119 1278.33,-478.063 1281.81,-484.134"/>
</g>
<!-- 2053976704864 -->
<g id="node12" class="node"><title>2053976704864</title>
<polygon fill="lightgrey" stroke="black" points="1138.5,-611 1048.5,-611 1048.5,-590 1138.5,-590 1138.5,-611"/>
<text text-anchor="middle" x="1093.5" y="-597.4" font-family="Times New Roman,serif" font-size="12.00">ReluBackward1</text>
</g>
<!-- 2053976704864&#45;&gt;2053976705536 -->
<g id="edge11" class="edge"><title>2053976704864&#45;&gt;2053976705536</title>
<path fill="none" stroke="black" d="M1107.96,-589.906C1125.27,-578.423 1154.46,-559.057 1174.79,-545.569"/>
<polygon fill="black" stroke="black" points="1176.76,-548.458 1183.16,-540.013 1172.89,-542.625 1176.76,-548.458"/>
</g>
<!-- 2053976704288 -->
<g id="node13" class="node"><title>2053976704288</title>
<polygon fill="lightgrey" stroke="black" points="1167,-675 1020,-675 1020,-654 1167,-654 1167,-675"/>
<text text-anchor="middle" x="1093.5" y="-661.4" font-family="Times New Roman,serif" font-size="12.00">NativeBatchNormBackward</text>
</g>
<!-- 2053976704288&#45;&gt;2053976704864 -->
<g id="edge12" class="edge"><title>2053976704288&#45;&gt;2053976704864</title>
<path fill="none" stroke="black" d="M1093.5,-653.813C1093.5,-645.218 1093.5,-632.388 1093.5,-621.585"/>
<polygon fill="black" stroke="black" points="1097,-621.324 1093.5,-611.324 1090,-621.324 1097,-621.324"/>
</g>
<!-- 2053976703280 -->
<g id="node14" class="node"><title>2053976703280</title>
<polygon fill="lightgrey" stroke="black" points="1048,-739 923,-739 923,-718 1048,-718 1048,-739"/>
<text text-anchor="middle" x="985.5" y="-725.4" font-family="Times New Roman,serif" font-size="12.00">ThnnConv2DBackward</text>
</g>
<!-- 2053976703280&#45;&gt;2053976704288 -->
<g id="edge13" class="edge"><title>2053976703280&#45;&gt;2053976704288</title>
<path fill="none" stroke="black" d="M1002.38,-717.813C1019.97,-707.712 1047.76,-691.76 1068.02,-680.125"/>
<polygon fill="black" stroke="black" points="1069.81,-683.134 1076.74,-675.119 1066.33,-677.063 1069.81,-683.134"/>
</g>
<!-- 2053976703664 -->
<g id="node15" class="node"><title>2053976703664</title>
<polygon fill="lightgrey" stroke="black" points="929.5,-810 755.5,-810 755.5,-789 929.5,-789 929.5,-810"/>
<text text-anchor="middle" x="842.5" y="-796.4" font-family="Times New Roman,serif" font-size="12.00">MaxPool2DWithIndicesBackward</text>
</g>
<!-- 2053976703664&#45;&gt;2053976703280 -->
<g id="edge14" class="edge"><title>2053976703664&#45;&gt;2053976703280</title>
<path fill="none" stroke="black" d="M862.384,-788.906C886.823,-777.114 928.489,-757.009 956.498,-743.494"/>
<polygon fill="black" stroke="black" points="958.3,-746.511 965.785,-739.013 955.258,-740.206 958.3,-746.511"/>
</g>
<!-- 2053976703904 -->
<g id="node16" class="node"><title>2053976703904</title>
<polygon fill="lightgrey" stroke="black" points="887.5,-874 797.5,-874 797.5,-853 887.5,-853 887.5,-874"/>
<text text-anchor="middle" x="842.5" y="-860.4" font-family="Times New Roman,serif" font-size="12.00">ReluBackward1</text>
</g>
<!-- 2053976703904&#45;&gt;2053976703664 -->
<g id="edge15" class="edge"><title>2053976703904&#45;&gt;2053976703664</title>
<path fill="none" stroke="black" d="M842.5,-852.813C842.5,-844.218 842.5,-831.388 842.5,-820.585"/>
<polygon fill="black" stroke="black" points="846,-820.324 842.5,-810.324 839,-820.324 846,-820.324"/>
</g>
<!-- 2053976703328 -->
<g id="node17" class="node"><title>2053976703328</title>
<polygon fill="lightgrey" stroke="black" points="916,-931 769,-931 769,-910 916,-910 916,-931"/>
<text text-anchor="middle" x="842.5" y="-917.4" font-family="Times New Roman,serif" font-size="12.00">NativeBatchNormBackward</text>
</g>
<!-- 2053976703328&#45;&gt;2053976703904 -->
<g id="edge16" class="edge"><title>2053976703328&#45;&gt;2053976703904</title>
<path fill="none" stroke="black" d="M842.5,-909.92C842.5,-902.908 842.5,-893.144 842.5,-884.465"/>
<polygon fill="black" stroke="black" points="846,-884.341 842.5,-874.341 839,-884.341 846,-884.341"/>
</g>
<!-- 2053976704336 -->
<g id="node18" class="node"><title>2053976704336</title>
<polygon fill="lightgrey" stroke="black" points="797,-995 672,-995 672,-974 797,-974 797,-995"/>
<text text-anchor="middle" x="734.5" y="-981.4" font-family="Times New Roman,serif" font-size="12.00">ThnnConv2DBackward</text>
</g>
<!-- 2053976704336&#45;&gt;2053976703328 -->
<g id="edge17" class="edge"><title>2053976704336&#45;&gt;2053976703328</title>
<path fill="none" stroke="black" d="M751.375,-973.813C768.97,-963.712 796.757,-947.76 817.024,-936.125"/>
<polygon fill="black" stroke="black" points="818.814,-939.134 825.743,-931.119 815.328,-933.063 818.814,-939.134"/>
</g>
<!-- 2053976704192 -->
<g id="node19" class="node"><title>2053976704192</title>
<polygon fill="lightgrey" stroke="black" points="681.5,-1066 591.5,-1066 591.5,-1045 681.5,-1045 681.5,-1066"/>
<text text-anchor="middle" x="636.5" y="-1052.4" font-family="Times New Roman,serif" font-size="12.00">ReluBackward1</text>
</g>
<!-- 2053976704192&#45;&gt;2053976704336 -->
<g id="edge18" class="edge"><title>2053976704192&#45;&gt;2053976704336</title>
<path fill="none" stroke="black" d="M650.126,-1044.91C666.29,-1033.53 693.449,-1014.4 712.58,-1000.93"/>
<polygon fill="black" stroke="black" points="714.828,-1003.63 720.989,-995.013 710.798,-997.908 714.828,-1003.63"/>
</g>
<!-- 2053976727856 -->
<g id="node20" class="node"><title>2053976727856</title>
<polygon fill="lightgrey" stroke="black" points="710,-1130 563,-1130 563,-1109 710,-1109 710,-1130"/>
<text text-anchor="middle" x="636.5" y="-1116.4" font-family="Times New Roman,serif" font-size="12.00">NativeBatchNormBackward</text>
</g>
<!-- 2053976727856&#45;&gt;2053976704192 -->
<g id="edge19" class="edge"><title>2053976727856&#45;&gt;2053976704192</title>
<path fill="none" stroke="black" d="M636.5,-1108.81C636.5,-1100.22 636.5,-1087.39 636.5,-1076.59"/>
<polygon fill="black" stroke="black" points="640,-1076.32 636.5,-1066.32 633,-1076.32 640,-1076.32"/>
</g>
<!-- 2053976727952 -->
<g id="node21" class="node"><title>2053976727952</title>
<polygon fill="lightgrey" stroke="black" points="591,-1194 466,-1194 466,-1173 591,-1173 591,-1194"/>
<text text-anchor="middle" x="528.5" y="-1180.4" font-family="Times New Roman,serif" font-size="12.00">ThnnConv2DBackward</text>
</g>
<!-- 2053976727952&#45;&gt;2053976727856 -->
<g id="edge20" class="edge"><title>2053976727952&#45;&gt;2053976727856</title>
<path fill="none" stroke="black" d="M545.375,-1172.81C562.97,-1162.71 590.757,-1146.76 611.024,-1135.13"/>
<polygon fill="black" stroke="black" points="612.814,-1138.13 619.743,-1130.12 609.328,-1132.06 612.814,-1138.13"/>
</g>
<!-- 2053631961360 -->
<g id="node22" class="node"><title>2053631961360</title>
<polygon fill="lightgrey" stroke="black" points="475.5,-1265 301.5,-1265 301.5,-1244 475.5,-1244 475.5,-1265"/>
<text text-anchor="middle" x="388.5" y="-1251.4" font-family="Times New Roman,serif" font-size="12.00">MaxPool2DWithIndicesBackward</text>
</g>
<!-- 2053631961360&#45;&gt;2053976727952 -->
<g id="edge21" class="edge"><title>2053631961360&#45;&gt;2053976727952</title>
<path fill="none" stroke="black" d="M407.966,-1243.91C431.893,-1232.11 472.685,-1212.01 500.107,-1198.49"/>
<polygon fill="black" stroke="black" points="501.776,-1201.57 509.199,-1194.01 498.682,-1195.29 501.776,-1201.57"/>
</g>
<!-- 2053976728816 -->
<g id="node23" class="node"><title>2053976728816</title>
<polygon fill="lightgrey" stroke="black" points="433.5,-1329 343.5,-1329 343.5,-1308 433.5,-1308 433.5,-1329"/>
<text text-anchor="middle" x="388.5" y="-1315.4" font-family="Times New Roman,serif" font-size="12.00">ReluBackward1</text>
</g>
<!-- 2053976728816&#45;&gt;2053631961360 -->
<g id="edge22" class="edge"><title>2053976728816&#45;&gt;2053631961360</title>
<path fill="none" stroke="black" d="M388.5,-1307.81C388.5,-1299.22 388.5,-1286.39 388.5,-1275.59"/>
<polygon fill="black" stroke="black" points="392,-1275.32 388.5,-1265.32 385,-1275.32 392,-1275.32"/>
</g>
<!-- 2053976730832 -->
<g id="node24" class="node"><title>2053976730832</title>
<polygon fill="lightgrey" stroke="black" points="462,-1386 315,-1386 315,-1365 462,-1365 462,-1386"/>
<text text-anchor="middle" x="388.5" y="-1372.4" font-family="Times New Roman,serif" font-size="12.00">NativeBatchNormBackward</text>
</g>
<!-- 2053976730832&#45;&gt;2053976728816 -->
<g id="edge23" class="edge"><title>2053976730832&#45;&gt;2053976728816</title>
<path fill="none" stroke="black" d="M388.5,-1364.92C388.5,-1357.91 388.5,-1348.14 388.5,-1339.47"/>
<polygon fill="black" stroke="black" points="392,-1339.34 388.5,-1329.34 385,-1339.34 392,-1339.34"/>
</g>
<!-- 2053976727760 -->
<g id="node25" class="node"><title>2053976727760</title>
<polygon fill="lightgrey" stroke="black" points="343,-1450 218,-1450 218,-1429 343,-1429 343,-1450"/>
<text text-anchor="middle" x="280.5" y="-1436.4" font-family="Times New Roman,serif" font-size="12.00">ThnnConv2DBackward</text>
</g>
<!-- 2053976727760&#45;&gt;2053976730832 -->
<g id="edge24" class="edge"><title>2053976727760&#45;&gt;2053976730832</title>
<path fill="none" stroke="black" d="M297.375,-1428.81C314.97,-1418.71 342.757,-1402.76 363.024,-1391.13"/>
<polygon fill="black" stroke="black" points="364.814,-1394.13 371.743,-1386.12 361.328,-1388.06 364.814,-1394.13"/>
</g>
<!-- 2053976728864 -->
<g id="node26" class="node"><title>2053976728864</title>
<polygon fill="lightgrey" stroke="black" points="227.5,-1521 137.5,-1521 137.5,-1500 227.5,-1500 227.5,-1521"/>
<text text-anchor="middle" x="182.5" y="-1507.4" font-family="Times New Roman,serif" font-size="12.00">ReluBackward1</text>
</g>
<!-- 2053976728864&#45;&gt;2053976727760 -->
<g id="edge25" class="edge"><title>2053976728864&#45;&gt;2053976727760</title>
<path fill="none" stroke="black" d="M196.126,-1499.91C212.29,-1488.53 239.449,-1469.4 258.58,-1455.93"/>
<polygon fill="black" stroke="black" points="260.828,-1458.63 266.989,-1450.01 256.798,-1452.91 260.828,-1458.63"/>
</g>
<!-- 2053976729392 -->
<g id="node27" class="node"><title>2053976729392</title>
<polygon fill="lightgrey" stroke="black" points="256,-1585 109,-1585 109,-1564 256,-1564 256,-1585"/>
<text text-anchor="middle" x="182.5" y="-1571.4" font-family="Times New Roman,serif" font-size="12.00">NativeBatchNormBackward</text>
</g>
<!-- 2053976729392&#45;&gt;2053976728864 -->
<g id="edge26" class="edge"><title>2053976729392&#45;&gt;2053976728864</title>
<path fill="none" stroke="black" d="M182.5,-1563.81C182.5,-1555.22 182.5,-1542.39 182.5,-1531.59"/>
<polygon fill="black" stroke="black" points="186,-1531.32 182.5,-1521.32 179,-1531.32 186,-1531.32"/>
</g>
<!-- 2053976729824 -->
<g id="node28" class="node"><title>2053976729824</title>
<polygon fill="lightgrey" stroke="black" points="137,-1649 12,-1649 12,-1628 137,-1628 137,-1649"/>
<text text-anchor="middle" x="74.5" y="-1635.4" font-family="Times New Roman,serif" font-size="12.00">ThnnConv2DBackward</text>
</g>
<!-- 2053976729824&#45;&gt;2053976729392 -->
<g id="edge27" class="edge"><title>2053976729824&#45;&gt;2053976729392</title>
<path fill="none" stroke="black" d="M91.375,-1627.81C108.97,-1617.71 136.757,-1601.76 157.024,-1590.13"/>
<polygon fill="black" stroke="black" points="158.814,-1593.13 165.743,-1585.12 155.328,-1587.06 158.814,-1593.13"/>
</g>
<!-- 2053976730352 -->
<g id="node29" class="node"><title>2053976730352</title>
<polygon fill="lightblue" stroke="black" points="69,-1727 0,-1727 0,-1692 69,-1692 69,-1727"/>
<text text-anchor="middle" x="34.5" y="-1699.4" font-family="Times New Roman,serif" font-size="12.00"> (4, 1, 3, 3)</text>
</g>
<!-- 2053976730352&#45;&gt;2053976729824 -->
<g id="edge28" class="edge"><title>2053976730352&#45;&gt;2053976729824</title>
<path fill="none" stroke="black" d="M44.1829,-1691.8C50.1308,-1681.54 57.7553,-1668.38 63.87,-1657.84"/>
<polygon fill="black" stroke="black" points="66.9823,-1659.45 68.9697,-1649.04 60.9263,-1655.94 66.9823,-1659.45"/>
</g>
<!-- 2053976728336 -->
<g id="node30" class="node"><title>2053976728336</title>
<polygon fill="lightblue" stroke="black" points="141.5,-1727 87.5,-1727 87.5,-1692 141.5,-1692 141.5,-1727"/>
<text text-anchor="middle" x="114.5" y="-1699.4" font-family="Times New Roman,serif" font-size="12.00"> (4)</text>
</g>
<!-- 2053976728336&#45;&gt;2053976729824 -->
<g id="edge29" class="edge"><title>2053976728336&#45;&gt;2053976729824</title>
<path fill="none" stroke="black" d="M104.817,-1691.8C98.8692,-1681.54 91.2447,-1668.38 85.13,-1657.84"/>
<polygon fill="black" stroke="black" points="88.0737,-1655.94 80.0303,-1649.04 82.0177,-1659.45 88.0737,-1655.94"/>
</g>
<!-- 2053976729872 -->
<g id="node31" class="node"><title>2053976729872</title>
<polygon fill="lightblue" stroke="black" points="209.5,-1656 155.5,-1656 155.5,-1621 209.5,-1621 209.5,-1656"/>
<text text-anchor="middle" x="182.5" y="-1628.4" font-family="Times New Roman,serif" font-size="12.00"> (4)</text>
</g>
<!-- 2053976729872&#45;&gt;2053976729392 -->
<g id="edge30" class="edge"><title>2053976729872&#45;&gt;2053976729392</title>
<path fill="none" stroke="black" d="M182.5,-1620.89C182.5,-1612.99 182.5,-1603.5 182.5,-1595.25"/>
<polygon fill="black" stroke="black" points="186,-1595.02 182.5,-1585.02 179,-1595.02 186,-1595.02"/>
</g>
<!-- 2053976729920 -->
<g id="node32" class="node"><title>2053976729920</title>
<polygon fill="lightblue" stroke="black" points="281.5,-1656 227.5,-1656 227.5,-1621 281.5,-1621 281.5,-1656"/>
<text text-anchor="middle" x="254.5" y="-1628.4" font-family="Times New Roman,serif" font-size="12.00"> (4)</text>
</g>
<!-- 2053976729920&#45;&gt;2053976729392 -->
<g id="edge31" class="edge"><title>2053976729920&#45;&gt;2053976729392</title>
<path fill="none" stroke="black" d="M235.205,-1620.89C224.687,-1611.83 211.725,-1600.67 201.288,-1591.68"/>
<polygon fill="black" stroke="black" points="203.414,-1588.89 193.553,-1585.02 198.847,-1594.2 203.414,-1588.89"/>
</g>
<!-- 2053976728912 -->
<g id="node33" class="node"><title>2053976728912</title>
<polygon fill="lightblue" stroke="black" points="315,-1528 246,-1528 246,-1493 315,-1493 315,-1528"/>
<text text-anchor="middle" x="280.5" y="-1500.4" font-family="Times New Roman,serif" font-size="12.00"> (4, 4, 3, 3)</text>
</g>
<!-- 2053976728912&#45;&gt;2053976727760 -->
<g id="edge32" class="edge"><title>2053976728912&#45;&gt;2053976727760</title>
<path fill="none" stroke="black" d="M280.5,-1492.8C280.5,-1482.96 280.5,-1470.45 280.5,-1460.14"/>
<polygon fill="black" stroke="black" points="284,-1460.04 280.5,-1450.04 277,-1460.04 284,-1460.04"/>
</g>
<!-- 2053976729296 -->
<g id="node34" class="node"><title>2053976729296</title>
<polygon fill="lightblue" stroke="black" points="387.5,-1528 333.5,-1528 333.5,-1493 387.5,-1493 387.5,-1528"/>
<text text-anchor="middle" x="360.5" y="-1500.4" font-family="Times New Roman,serif" font-size="12.00"> (4)</text>
</g>
<!-- 2053976729296&#45;&gt;2053976727760 -->
<g id="edge33" class="edge"><title>2053976729296&#45;&gt;2053976727760</title>
<path fill="none" stroke="black" d="M341.134,-1492.8C328.389,-1481.8 311.794,-1467.49 299.188,-1456.62"/>
<polygon fill="black" stroke="black" points="301.419,-1453.92 291.561,-1450.04 296.847,-1459.22 301.419,-1453.92"/>
</g>
<!-- 2053976729776 -->
<g id="node35" class="node"><title>2053976729776</title>
<polygon fill="lightblue" stroke="black" points="415.5,-1457 361.5,-1457 361.5,-1422 415.5,-1422 415.5,-1457"/>
<text text-anchor="middle" x="388.5" y="-1429.4" font-family="Times New Roman,serif" font-size="12.00"> (4)</text>
</g>
<!-- 2053976729776&#45;&gt;2053976730832 -->
<g id="edge34" class="edge"><title>2053976729776&#45;&gt;2053976730832</title>
<path fill="none" stroke="black" d="M388.5,-1421.89C388.5,-1413.99 388.5,-1404.5 388.5,-1396.25"/>
<polygon fill="black" stroke="black" points="392,-1396.02 388.5,-1386.02 385,-1396.02 392,-1396.02"/>
</g>
<!-- 2053976728720 -->
<g id="node36" class="node"><title>2053976728720</title>
<polygon fill="lightblue" stroke="black" points="487.5,-1457 433.5,-1457 433.5,-1422 487.5,-1422 487.5,-1457"/>
<text text-anchor="middle" x="460.5" y="-1429.4" font-family="Times New Roman,serif" font-size="12.00"> (4)</text>
</g>
<!-- 2053976728720&#45;&gt;2053976730832 -->
<g id="edge35" class="edge"><title>2053976728720&#45;&gt;2053976730832</title>
<path fill="none" stroke="black" d="M441.205,-1421.89C430.687,-1412.83 417.725,-1401.67 407.288,-1392.68"/>
<polygon fill="black" stroke="black" points="409.414,-1389.89 399.553,-1386.02 404.847,-1395.2 409.414,-1389.89"/>
</g>
<!-- 2053976705104 -->
<g id="node37" class="node"><title>2053976705104</title>
<polygon fill="lightblue" stroke="black" points="563,-1272 494,-1272 494,-1237 563,-1237 563,-1272"/>
<text text-anchor="middle" x="528.5" y="-1244.4" font-family="Times New Roman,serif" font-size="12.00"> (8, 4, 3, 3)</text>
</g>
<!-- 2053976705104&#45;&gt;2053976727952 -->
<g id="edge36" class="edge"><title>2053976705104&#45;&gt;2053976727952</title>
<path fill="none" stroke="black" d="M528.5,-1236.8C528.5,-1226.96 528.5,-1214.45 528.5,-1204.14"/>
<polygon fill="black" stroke="black" points="532,-1204.04 528.5,-1194.04 525,-1204.04 532,-1204.04"/>
</g>
<!-- 2053976706160 -->
<g id="node38" class="node"><title>2053976706160</title>
<polygon fill="lightblue" stroke="black" points="635.5,-1272 581.5,-1272 581.5,-1237 635.5,-1237 635.5,-1272"/>
<text text-anchor="middle" x="608.5" y="-1244.4" font-family="Times New Roman,serif" font-size="12.00"> (8)</text>
</g>
<!-- 2053976706160&#45;&gt;2053976727952 -->
<g id="edge37" class="edge"><title>2053976706160&#45;&gt;2053976727952</title>
<path fill="none" stroke="black" d="M589.134,-1236.8C576.389,-1225.8 559.794,-1211.49 547.188,-1200.62"/>
<polygon fill="black" stroke="black" points="549.419,-1197.92 539.561,-1194.04 544.847,-1203.22 549.419,-1197.92"/>
</g>
<!-- 2053976728384 -->
<g id="node39" class="node"><title>2053976728384</title>
<polygon fill="lightblue" stroke="black" points="663.5,-1201 609.5,-1201 609.5,-1166 663.5,-1166 663.5,-1201"/>
<text text-anchor="middle" x="636.5" y="-1173.4" font-family="Times New Roman,serif" font-size="12.00"> (8)</text>
</g>
<!-- 2053976728384&#45;&gt;2053976727856 -->
<g id="edge38" class="edge"><title>2053976728384&#45;&gt;2053976727856</title>
<path fill="none" stroke="black" d="M636.5,-1165.89C636.5,-1157.99 636.5,-1148.5 636.5,-1140.25"/>
<polygon fill="black" stroke="black" points="640,-1140.02 636.5,-1130.02 633,-1140.02 640,-1140.02"/>
</g>
<!-- 2053976728432 -->
<g id="node40" class="node"><title>2053976728432</title>
<polygon fill="lightblue" stroke="black" points="735.5,-1201 681.5,-1201 681.5,-1166 735.5,-1166 735.5,-1201"/>
<text text-anchor="middle" x="708.5" y="-1173.4" font-family="Times New Roman,serif" font-size="12.00"> (8)</text>
</g>
<!-- 2053976728432&#45;&gt;2053976727856 -->
<g id="edge39" class="edge"><title>2053976728432&#45;&gt;2053976727856</title>
<path fill="none" stroke="black" d="M689.205,-1165.89C678.687,-1156.83 665.725,-1145.67 655.288,-1136.68"/>
<polygon fill="black" stroke="black" points="657.414,-1133.89 647.553,-1130.02 652.847,-1139.2 657.414,-1133.89"/>
</g>
<!-- 2053976731504 -->
<g id="node41" class="node"><title>2053976731504</title>
<polygon fill="lightblue" stroke="black" points="769,-1073 700,-1073 700,-1038 769,-1038 769,-1073"/>
<text text-anchor="middle" x="734.5" y="-1045.4" font-family="Times New Roman,serif" font-size="12.00"> (8, 8, 3, 3)</text>
</g>
<!-- 2053976731504&#45;&gt;2053976704336 -->
<g id="edge40" class="edge"><title>2053976731504&#45;&gt;2053976704336</title>
<path fill="none" stroke="black" d="M734.5,-1037.8C734.5,-1027.96 734.5,-1015.45 734.5,-1005.14"/>
<polygon fill="black" stroke="black" points="738,-1005.04 734.5,-995.04 731,-1005.04 738,-1005.04"/>
</g>
<!-- 2053976731552 -->
<g id="node42" class="node"><title>2053976731552</title>
<polygon fill="lightblue" stroke="black" points="841.5,-1073 787.5,-1073 787.5,-1038 841.5,-1038 841.5,-1073"/>
<text text-anchor="middle" x="814.5" y="-1045.4" font-family="Times New Roman,serif" font-size="12.00"> (8)</text>
</g>
<!-- 2053976731552&#45;&gt;2053976704336 -->
<g id="edge41" class="edge"><title>2053976731552&#45;&gt;2053976704336</title>
<path fill="none" stroke="black" d="M795.134,-1037.8C782.389,-1026.8 765.794,-1012.49 753.188,-1001.62"/>
<polygon fill="black" stroke="black" points="755.419,-998.921 745.561,-995.04 750.847,-1004.22 755.419,-998.921"/>
</g>
<!-- 2053976705584 -->
<g id="node43" class="node"><title>2053976705584</title>
<polygon fill="lightblue" stroke="black" points="869.5,-1002 815.5,-1002 815.5,-967 869.5,-967 869.5,-1002"/>
<text text-anchor="middle" x="842.5" y="-974.4" font-family="Times New Roman,serif" font-size="12.00"> (8)</text>
</g>
<!-- 2053976705584&#45;&gt;2053976703328 -->
<g id="edge42" class="edge"><title>2053976705584&#45;&gt;2053976703328</title>
<path fill="none" stroke="black" d="M842.5,-966.885C842.5,-958.994 842.5,-949.505 842.5,-941.248"/>
<polygon fill="black" stroke="black" points="846,-941.018 842.5,-931.018 839,-941.018 846,-941.018"/>
</g>
<!-- 2053976705056 -->
<g id="node44" class="node"><title>2053976705056</title>
<polygon fill="lightblue" stroke="black" points="941.5,-1002 887.5,-1002 887.5,-967 941.5,-967 941.5,-1002"/>
<text text-anchor="middle" x="914.5" y="-974.4" font-family="Times New Roman,serif" font-size="12.00"> (8)</text>
</g>
<!-- 2053976705056&#45;&gt;2053976703328 -->
<g id="edge43" class="edge"><title>2053976705056&#45;&gt;2053976703328</title>
<path fill="none" stroke="black" d="M895.205,-966.885C884.687,-957.828 871.725,-946.666 861.288,-937.678"/>
<polygon fill="black" stroke="black" points="863.414,-934.891 853.553,-931.018 858.847,-940.195 863.414,-934.891"/>
</g>
<!-- 2053976703856 -->
<g id="node45" class="node"><title>2053976703856</title>
<polygon fill="lightblue" stroke="black" points="1023,-817 948,-817 948,-782 1023,-782 1023,-817"/>
<text text-anchor="middle" x="985.5" y="-789.4" font-family="Times New Roman,serif" font-size="12.00"> (16, 8, 3, 3)</text>
</g>
<!-- 2053976703856&#45;&gt;2053976703280 -->
<g id="edge44" class="edge"><title>2053976703856&#45;&gt;2053976703280</title>
<path fill="none" stroke="black" d="M985.5,-781.797C985.5,-771.956 985.5,-759.453 985.5,-749.141"/>
<polygon fill="black" stroke="black" points="989,-749.04 985.5,-739.04 982,-749.04 989,-749.04"/>
</g>
<!-- 2053976704912 -->
<g id="node46" class="node"><title>2053976704912</title>
<polygon fill="lightblue" stroke="black" points="1095.5,-817 1041.5,-817 1041.5,-782 1095.5,-782 1095.5,-817"/>
<text text-anchor="middle" x="1068.5" y="-789.4" font-family="Times New Roman,serif" font-size="12.00"> (16)</text>
</g>
<!-- 2053976704912&#45;&gt;2053976703280 -->
<g id="edge45" class="edge"><title>2053976704912&#45;&gt;2053976703280</title>
<path fill="none" stroke="black" d="M1048.41,-781.797C1035.18,-770.804 1017.97,-756.491 1004.89,-745.618"/>
<polygon fill="black" stroke="black" points="1006.9,-742.741 996.975,-739.04 1002.43,-748.124 1006.9,-742.741"/>
</g>
<!-- 2053976705344 -->
<g id="node47" class="node"><title>2053976705344</title>
<polygon fill="lightblue" stroke="black" points="1120.5,-746 1066.5,-746 1066.5,-711 1120.5,-711 1120.5,-746"/>
<text text-anchor="middle" x="1093.5" y="-718.4" font-family="Times New Roman,serif" font-size="12.00"> (16)</text>
</g>
<!-- 2053976705344&#45;&gt;2053976704288 -->
<g id="edge46" class="edge"><title>2053976705344&#45;&gt;2053976704288</title>
<path fill="none" stroke="black" d="M1093.5,-710.885C1093.5,-702.994 1093.5,-693.505 1093.5,-685.248"/>
<polygon fill="black" stroke="black" points="1097,-685.018 1093.5,-675.018 1090,-685.018 1097,-685.018"/>
</g>
<!-- 2053976704480 -->
<g id="node48" class="node"><title>2053976704480</title>
<polygon fill="lightblue" stroke="black" points="1192.5,-746 1138.5,-746 1138.5,-711 1192.5,-711 1192.5,-746"/>
<text text-anchor="middle" x="1165.5" y="-718.4" font-family="Times New Roman,serif" font-size="12.00"> (16)</text>
</g>
<!-- 2053976704480&#45;&gt;2053976704288 -->
<g id="edge47" class="edge"><title>2053976704480&#45;&gt;2053976704288</title>
<path fill="none" stroke="black" d="M1146.21,-710.885C1135.69,-701.828 1122.73,-690.666 1112.29,-681.678"/>
<polygon fill="black" stroke="black" points="1114.41,-678.891 1104.55,-675.018 1109.85,-684.195 1114.41,-678.891"/>
</g>
<!-- 2053976705008 -->
<g id="node49" class="node"><title>2053976705008</title>
<polygon fill="lightblue" stroke="black" points="1238,-618 1157,-618 1157,-583 1238,-583 1238,-618"/>
<text text-anchor="middle" x="1197.5" y="-590.4" font-family="Times New Roman,serif" font-size="12.00"> (16, 16, 3, 3)</text>
</g>
<!-- 2053976705008&#45;&gt;2053976705536 -->
<g id="edge48" class="edge"><title>2053976705008&#45;&gt;2053976705536</title>
<path fill="none" stroke="black" d="M1197.5,-582.797C1197.5,-572.956 1197.5,-560.453 1197.5,-550.141"/>
<polygon fill="black" stroke="black" points="1201,-550.04 1197.5,-540.04 1194,-550.04 1201,-550.04"/>
</g>
<!-- 2053976704000 -->
<g id="node50" class="node"><title>2053976704000</title>
<polygon fill="lightblue" stroke="black" points="1310.5,-618 1256.5,-618 1256.5,-583 1310.5,-583 1310.5,-618"/>
<text text-anchor="middle" x="1283.5" y="-590.4" font-family="Times New Roman,serif" font-size="12.00"> (16)</text>
</g>
<!-- 2053976704000&#45;&gt;2053976705536 -->
<g id="edge49" class="edge"><title>2053976704000&#45;&gt;2053976705536</title>
<path fill="none" stroke="black" d="M1262.68,-582.797C1248.85,-571.699 1230.8,-557.218 1217.2,-546.309"/>
<polygon fill="black" stroke="black" points="1219.38,-543.568 1209.39,-540.04 1215,-549.028 1219.38,-543.568"/>
</g>
<!-- 2053976704768 -->
<g id="node51" class="node"><title>2053976704768</title>
<polygon fill="lightblue" stroke="black" points="1332.5,-547 1278.5,-547 1278.5,-512 1332.5,-512 1332.5,-547"/>
<text text-anchor="middle" x="1305.5" y="-519.4" font-family="Times New Roman,serif" font-size="12.00"> (16)</text>
</g>
<!-- 2053976704768&#45;&gt;2053976615760 -->
<g id="edge50" class="edge"><title>2053976704768&#45;&gt;2053976615760</title>
<path fill="none" stroke="black" d="M1305.5,-511.885C1305.5,-503.994 1305.5,-494.505 1305.5,-486.248"/>
<polygon fill="black" stroke="black" points="1309,-486.018 1305.5,-476.018 1302,-486.018 1309,-486.018"/>
</g>
<!-- 2053976703184 -->
<g id="node52" class="node"><title>2053976703184</title>
<polygon fill="lightblue" stroke="black" points="1404.5,-547 1350.5,-547 1350.5,-512 1404.5,-512 1404.5,-547"/>
<text text-anchor="middle" x="1377.5" y="-519.4" font-family="Times New Roman,serif" font-size="12.00"> (16)</text>
</g>
<!-- 2053976703184&#45;&gt;2053976615760 -->
<g id="edge51" class="edge"><title>2053976703184&#45;&gt;2053976615760</title>
<path fill="none" stroke="black" d="M1358.21,-511.885C1347.69,-502.828 1334.73,-491.666 1324.29,-482.678"/>
<polygon fill="black" stroke="black" points="1326.41,-479.891 1316.55,-476.018 1321.85,-485.195 1326.41,-479.891"/>
</g>
<!-- 2053976616672 -->
<g id="node53" class="node"><title>2053976616672</title>
<polygon fill="lightgrey" stroke="black" points="1439,-227 1368,-227 1368,-206 1439,-206 1439,-227"/>
<text text-anchor="middle" x="1403.5" y="-213.4" font-family="Times New Roman,serif" font-size="12.00">TBackward</text>
</g>
<!-- 2053976616672&#45;&gt;2053976616720 -->
<g id="edge52" class="edge"><title>2053976616672&#45;&gt;2053976616720</title>
<path fill="none" stroke="black" d="M1389.87,-205.906C1373.71,-194.526 1346.55,-175.403 1327.42,-161.934"/>
<polygon fill="black" stroke="black" points="1329.2,-158.908 1319.01,-156.013 1325.17,-164.632 1329.2,-158.908"/>
</g>
<!-- 2053976616240 -->
<g id="node54" class="node"><title>2053976616240</title>
<polygon fill="lightblue" stroke="black" points="1435,-305 1372,-305 1372,-270 1435,-270 1435,-305"/>
<text text-anchor="middle" x="1403.5" y="-277.4" font-family="Times New Roman,serif" font-size="12.00"> (32, 256)</text>
</g>
<!-- 2053976616240&#45;&gt;2053976616672 -->
<g id="edge53" class="edge"><title>2053976616240&#45;&gt;2053976616672</title>
<path fill="none" stroke="black" d="M1403.5,-269.797C1403.5,-259.956 1403.5,-247.453 1403.5,-237.141"/>
<polygon fill="black" stroke="black" points="1407,-237.04 1403.5,-227.04 1400,-237.04 1407,-237.04"/>
</g>
<!-- 2053976616528 -->
<g id="node55" class="node"><title>2053976616528</title>
<polygon fill="lightgrey" stroke="black" points="1440,-85 1369,-85 1369,-64 1440,-64 1440,-85"/>
<text text-anchor="middle" x="1404.5" y="-71.4" font-family="Times New Roman,serif" font-size="12.00">TBackward</text>
</g>
<!-- 2053976616528&#45;&gt;2053976615952 -->
<g id="edge54" class="edge"><title>2053976616528&#45;&gt;2053976615952</title>
<path fill="none" stroke="black" d="M1389.03,-63.8125C1373.05,-53.8028 1347.89,-38.0471 1329.36,-26.4405"/>
<polygon fill="black" stroke="black" points="1331.19,-23.4609 1320.86,-21.1195 1327.48,-29.3935 1331.19,-23.4609"/>
</g>
<!-- 2053976616816 -->
<g id="node56" class="node"><title>2053976616816</title>
<polygon fill="lightblue" stroke="black" points="1431.5,-163 1377.5,-163 1377.5,-128 1431.5,-128 1431.5,-163"/>
<text text-anchor="middle" x="1404.5" y="-135.4" font-family="Times New Roman,serif" font-size="12.00"> (1, 32)</text>
</g>
<!-- 2053976616816&#45;&gt;2053976616528 -->
<g id="edge55" class="edge"><title>2053976616816&#45;&gt;2053976616528</title>
<path fill="none" stroke="black" d="M1404.5,-127.797C1404.5,-117.956 1404.5,-105.453 1404.5,-95.141"/>
<polygon fill="black" stroke="black" points="1408,-95.0398 1404.5,-85.0398 1401,-95.0398 1408,-95.0398"/>
</g>
</g>
</svg>
